<svg width="26" height="25" viewBox="0 0 26 25" fill="none" xmlns="http://www.w3.org/2000/svg">
<path d="M25.078 4.55815C22.933 4.37491 20.7881 4.23747 18.6298 4.1344V4.12295L18.3367 2.63411C18.1369 1.58046 17.8438 0 14.7263 0H11.2358C8.13156 0 7.83847 1.51175 7.6253 2.62265L7.34553 4.08859C6.10653 4.15731 4.86752 4.22602 3.62852 4.3291L0.910702 4.55815C0.351152 4.60396 -0.048527 5.02771 0.00476353 5.49726C0.058054 5.96682 0.537668 6.3104 1.09722 6.26459L3.81503 6.03554C10.7961 5.44 17.8305 5.66905 24.8915 6.27604H24.9981C25.5043 6.27604 25.944 5.94392 25.9972 5.49726C26.0372 5.02771 25.6375 4.60396 25.078 4.55815Z" fill="#292D32"/>
<path d="M22.6266 7.89087C22.3069 7.60455 21.8672 7.44421 21.4143 7.44421H4.57452C4.12155 7.44421 3.66858 7.60455 3.36216 7.89087C3.05574 8.17718 2.88255 8.56657 2.90919 8.96741L3.7352 20.7178C3.88175 22.4586 4.06826 24.6346 8.71786 24.6346H17.2709C21.9205 24.6346 22.1072 22.4701 22.2536 20.7178L23.0796 8.97887C23.1062 8.56657 22.933 8.17718 22.6266 7.89087ZM15.2059 18.8968H10.7695C10.2233 18.8968 9.77035 18.5075 9.77035 18.0379C9.77035 17.5683 10.2233 17.179 10.7695 17.179H15.2059C15.7521 17.179 16.2051 17.5683 16.2051 18.0379C16.2051 18.5075 15.7521 18.8968 15.2059 18.8968ZM16.325 14.3158H9.66377C9.11754 14.3158 8.66457 13.9264 8.66457 13.4568C8.66457 12.9873 9.11754 12.5979 9.66377 12.5979H16.325C16.8712 12.5979 17.3242 12.9873 17.3242 13.4568C17.3242 13.9264 16.8712 14.3158 16.325 14.3158Z" fill="#292D32"/>
</svg>
