<svg width="25" height="25" viewBox="0 0 25 25" fill="none" xmlns="http://www.w3.org/2000/svg">
<path d="M12.5 24.7744C5.60465 24.7744 0 19.2203 0 12.3872C0 5.55408 5.60465 0 12.5 0C19.3953 0 25 5.55408 25 12.3872C25 19.2203 19.3953 24.7744 12.5 24.7744ZM12.5 1.72845C6.56977 1.72845 1.74419 6.51048 1.74419 12.3872C1.74419 18.2639 6.56977 23.046 12.5 23.046C18.4302 23.046 23.2558 18.2639 23.2558 12.3872C23.2558 6.51048 18.4302 1.72845 12.5 1.72845Z" fill="#292D32"/>
<path d="M10.8483 16.5125C10.6157 16.5125 10.3948 16.4204 10.232 16.259L6.94123 12.998C6.60402 12.6639 6.60402 12.1108 6.94123 11.7766C7.27844 11.4424 7.83658 11.4424 8.17379 11.7766L10.8483 14.4269L16.825 8.50407C17.1622 8.16991 17.7204 8.16991 18.0576 8.50407C18.3948 8.83824 18.3948 9.39134 18.0576 9.72551L11.4645 16.259C11.3018 16.4204 11.0808 16.5125 10.8483 16.5125Z" fill="#292D32"/>
</svg>
